<svg xmlns="http://www.w3.org/2000/svg" width="293.734" height="134.812" viewBox="0 0 293.734 134.812">
  <g id="Group_6" data-name="Group 6" transform="translate(984.023 -1309.5)">
    <path id="Path_13427" data-name="Path 13427" d="M0,0,27.1,30.719,54.4,0,81.183,30.719,108.96,0" transform="translate(-864.47 1433.719) rotate(180)" fill="none" stroke="#004eff" stroke-linecap="round" stroke-linejoin="round" stroke-width="15"/>
    <path id="Path_13428" data-name="Path 13428" d="M0,0,27.1,30.719,54.4,0,81.183,30.719,108.96,0" transform="translate(-755.47 1433.719) rotate(180)" fill="none" stroke="#004eff" stroke-linecap="round" stroke-linejoin="round" stroke-width="15"/>
    <path id="Path_13429" data-name="Path 13429" d="M0,0,26.781,30.719,54.559,0" transform="translate(-700.871 1433.719) rotate(180)" fill="none" stroke="#004eff" stroke-linecap="round" stroke-linejoin="round" stroke-width="15"/>
    <path id="Path_13426" data-name="Path 13426" d="M0,0,27.3,30.719,54.084,0" transform="translate(-755.43 1403)" fill="none" stroke="#004eff" stroke-linecap="round" stroke-linejoin="round" stroke-width="15"/>
    <path id="Path_74" data-name="Path 74" d="M35.533,66.05H9V17.791" transform="translate(-979.004 1299.209)" fill="none" stroke="#004eff" stroke-linecap="round" stroke-linejoin="round" stroke-width="15"/>
    <path id="Path_76" data-name="Path 76" d="M84,19.931a23,23,0,1,1-23,23A23,23,0,0,1,84,19.931Z" transform="translate(-980.004 1299.209)" fill="none" stroke="#004eff" stroke-linecap="round" stroke-width="15"/>
    <path id="Path_77" data-name="Path 77" d="M208,66.05V17.791" transform="translate(-983.004 1299.209)" fill="none" stroke="#004eff" stroke-linecap="round" stroke-linejoin="round" stroke-width="15"/>
    <path id="Path_76-2" data-name="Path 76" d="M275.843,59.71a23,23,0,1,1,0-32.527" transform="translate(-981.004 1299.209)" fill="none" stroke="#004eff" stroke-linecap="round" stroke-width="15"/>
    <path id="Path_76-3" data-name="Path 76" d="M272.074,24.13a23,23,0,1,0,3.769,35.58c.229.316,0-14.164,0-14.164H264.236" transform="translate(-1082.004 1299.209)" fill="none" stroke="#004eff" stroke-linecap="round" stroke-linejoin="round" stroke-width="15"/>
  </g>
</svg>
